<svg width="24" height="24" viewBox="0 0 24 24" fill="none" xmlns="http://www.w3.org/2000/svg">
<path fill-rule="evenodd" clip-rule="evenodd" d="M8.54516 9.8872C8.10497 10.6521 7.44128 11 7 11C6.28883 11 5 10.0964 5 8C5 6.40004 5.75071 5.49484 6.42239 5.15585C6.15771 5.66459 6 6.30467 6 7C6 8.65685 6.89543 10 8 10C8.18899 10 8.37185 9.96068 8.54516 9.8872ZM11 8C11 10.7614 9.20914 13 7 13C4.79086 13 3 10.7614 3 8C3 5.23858 4.79086 3 7 3C9.20914 3 11 5.23858 11 8ZM18.5452 9.8872C18.3718 9.96068 18.189 10 18 10C16.8954 10 16 8.65685 16 7C16 6.30467 16.1577 5.66459 16.4224 5.15585C15.7507 5.49484 15 6.40004 15 8C15 10.0964 16.2888 11 17 11C17.4413 11 18.105 10.6521 18.5452 9.8872ZM21 8C21 10.7614 19.2091 13 17 13C14.7909 13 13 10.7614 13 8C13 5.23858 14.7909 3 17 3C19.2091 3 21 5.23858 21 8ZM5.24382 19.0726C3.32369 17.7451 2 15.7048 2 13H4C4 14.9619 4.92631 16.4216 6.38118 17.4274C7.86601 18.454 9.9052 19 12 19C12.0134 19 12.0267 19 12.0401 18.9999C12.1054 18.1568 12.2585 17.1819 12.5562 16.3319C12.7678 15.7278 13.0854 15.089 13.5827 14.6241C14.124 14.1181 14.851 13.8503 15.6961 14.0193C16.4052 14.1612 16.9709 14.4985 17.383 14.9774C17.7836 15.4429 17.997 15.9922 18.1042 16.5096C18.1376 16.6707 18.1616 16.8333 18.1777 16.9955C19.3067 16.0187 20 14.6972 20 13H22C22 15.7048 20.6763 17.7451 18.7562 19.0726C16.866 20.3793 14.4052 21 12 21C9.5948 21 7.13399 20.3793 5.24382 19.0726ZM16.1484 18.2189C16.2136 17.8035 16.2312 17.3276 16.1458 16.9154C16.0864 16.6286 15.9872 16.4216 15.867 16.2819C15.7583 16.1555 15.5948 16.0387 15.3039 15.9805C15.149 15.9495 15.0635 15.9776 14.9486 16.0851C14.7896 16.2337 14.6072 16.5262 14.4438 16.9929C14.2516 17.5419 14.1311 18.1975 14.0649 18.8191C14.7974 18.6882 15.5 18.487 16.1484 18.2189Z" fill="black"/>
</svg>
