<svg width="1440" height="340" viewBox="0 0 1440 340" fill="none" xmlns="http://www.w3.org/2000/svg">
<mask id="mask0_182_1241" style="mask-type:alpha" maskUnits="userSpaceOnUse" x="0" y="0" width="1440" height="340">
<rect width="1440" height="340" fill="#F2F2F2"/>
</mask>
<g mask="url(#mask0_182_1241)">
<path d="M-160 251.395C-105.517 221.36 -22.5418 206.245 121.414 198.833C200.503 194.761 237.379 172.204 233.88 147.772C230.881 132.156 212.887 137.663 199.391 147.772C204.389 131.656 190.59 115.228 176.898 130.654C164.901 144.171 152.405 201.336 233.88 245.388C315.356 289.441 434.5 339 605.267 339C776.035 339 939.332 211.515 1041.13 147.772C1106.61 106.772 1240.37 58.8662 1287.56 75.6862C1334.75 92.5063 1336.21 130.752 1331.05 147.772C1325.61 165.696 1304.65 172.201 1297.06 147.772C1292.39 156.95 1280.36 173.603 1269.57 166.795C1256.07 158.285 1260.57 109.727 1361.54 53.6599C1442.31 8.80646 1477.5 -0.0707888 1485 1.09727" stroke="#F3ABAB" stroke-width="6"/>
</g>
</svg>
